<svg xmlns="http://www.w3.org/2000/svg" xmlns:xlink="http://www.w3.org/1999/xlink" width="800px" height="189.9px" viewBox="0 0 800 189.9">
	<defs>
		<rect id="rect" width="80" height="50"/>
		<g id="js" transform="translate(72 8)">
			<circle class="circle" r="7" />
			<text class="circle-content block-text block-text--small">JS</text>
		</g>
		<g id="chain" transform="translate(72 8) scale(.1) translate(-50 -50)">
			<circle class="circle" cx="50" cy="50" r="70"/>
			<path class="circle-content" d="M28.6,71.4c2,2,5.1,2,7.1,0l35.8-35.8c2-2,2-5.1,0-7.1c-2-2-5.1-2-7.1,0L28.6,64.4C26.6,66.3,26.6,69.5,28.6,71.4z"/>
			<path class="circle-content" d="M45.7,64.2c0.2,2.9-0.8,5.9-3,8.1L31.1,84c-4.1,4.1-10.7,4.1-14.8,0l-0.2-0.2C12,79.7,12,73,16.1,68.9l11.6-11.6c2.2-2.2,5.2-3.2,8.1-3l8-8c-7.6-3.6-17-2.3-23.3,4L9,61.9c-8,8-8,21,0,28.9L9.2,91c8,8,21,8,28.9,0l11.6-11.6c6.3-6.3,7.6-15.7,4-23.3L45.7,64.2z"/>
			<path class="circle-content" d="M91.1,9.2L90.8,9c-8-8-21-8-28.9,0L50.3,20.6c-6.3,6.3-7.6,15.7-4,23.3l8-8c-0.2-2.9,0.8-5.9,3-8.1L69,16c4.1-4.1,10.7-4.1,14.8,0l0.2,0.2c4.1,4.1,4.1,10.7,0,14.8L72.4,42.6c-2.2,2.2-5.2,3.2-8.1,3l-8,8c7.6,3.6,17,2.3,23.3-4L91,38.1C99,30.1,99,17.2,91.1,9.2z"/>
		</g>
		<g id="arrow">
			<line class="lines" x1="80" y1="25" x2="102" y2="25"/>
			<polygon points="102,30 110,25 102,20"/>
		</g>
	</defs>
<style type="text/css">
	.block {
		stroke: #000000;
		stroke-miterlimit: 10;
	}
	.block--yes {
		fill: #BBEA78;
	}
	.block--no {
		fill: #ED7782;
	}
	.block-text {
		font-family: Myriad Pro, sans-serif;
		font-size: 13px;
		dominant-baseline: central;
		text-anchor: middle;
		transform: translate(40px, 25px);
	}
	.block-text--small {
		font-size: 9px;
		transform: none;
	}
	.on {
		opacity: 1
	}
	.off {
		opacity: 0
	}
	.lines {
		fill: none;
		stroke: black;
		stroke-miterlimit: 10;
	}
	.circle {
		opacity: 0.5;
	}
	.circle-content {
		fill: white;
	}
</style>
<g id="HTML-CSS" transform="translate(25 70)">
	<use xlink:href="#rect" class="block block--yes" />
	<text class="block-text">HTML / CSS</text>
	<use xlink:href="#arrow"/>
</g>
<g id="Parsing" transform="translate(135 70)">
	<use xlink:href="#rect" class="block block--no" />
	<text class="block-text">Parsing</text>
	<use xlink:href="#chain" class="on"/>
	<use xlink:href="#js" class="off"/>
	<g>
		<line class="lines" x1="80" y1="25" x2="90" y2="25"/>
		<line class="lines" x1="90" y1="-17.5" x2="90" y2="67.5"/>
		<line class="lines" x1="90" y1="-17.5" x2="102" y2="-17.5"/>
		<polygon points="102,-22.5 110,-17.5 102,-12.5"/>
		<line class="lines" x1="90" y1="67.5" x2="102" y2="67.5"/>
		<polygon points="102,62.5 110,67.5 102,72.5"/>
	</g>
</g>
<g id="DOM" transform="translate(245 35)">
	<use xlink:href="#rect" class="block block--yes" />
	<text class="block-text">DOM</text>
	<use xlink:href="#js"/>
</g>
<g id="CSSOM" transform="translate(245 105)">
	<use xlink:href="#rect" class="block block--yes" />
	<polyline class="block block--no" points="0,0 0,50 80,50"/>
	<text class="block-text">CSSOM</text>
	<text class="block-text off">Typed OM</text>
	<use xlink:href="#js"/>
</g>
<g id="Render_Tree" transform="translate(355 70)">
	<g>
		<line class="lines" x1="-30" y1="-17.5" x2="-18" y2="-17.5"/>
		<line class="lines" x1="-30" y1="67.5" x2="-18" y2="67.5"/>
		<line class="lines" x1="-18" y1="-17.5" x2="-18" y2="67.5"/>
		<line class="lines" x1="-18" y1="25" x2="-8" y2="25"/>
		<polygon points="-8,20 0,25 -8,30"/>
	</g>
	<use xlink:href="#rect" class="block block--no" />
	<text class="block-text">Render Tree</text>
	<use xlink:href="#chain"/>
	<use xlink:href="#arrow"/>
	<use xlink:href="#js" class="off"/>
</g>
<g id="Layout" transform="translate(465 70)">
	<use xlink:href="#rect" class="block block--no" />
	<text class="block-text">Layout</text>
	<use xlink:href="#chain"/>
	<use xlink:href="#arrow"/>
	<use xlink:href="#js" class="off"/>
</g>
<g id="Paint" transform="translate(575 70)">
	<use xlink:href="#rect" class="block block--no" />
	<text class="block-text">Paint</text>
	<use xlink:href="#chain"/>
	<use xlink:href="#arrow"/>
	<use xlink:href="#js" class="off"/>
</g>
<g id="Composite" transform="translate(685 70)">
	<use xlink:href="#rect" class="block block--no" />
	<text class="block-text">Composite</text>
	<use xlink:href="#chain"/>
	<use xlink:href="#js" class="off"/>
</g>
</svg>