<?xml version="1.0" encoding="utf-8"?>
<!-- Generator: Adobe Illustrator 19.0.1, SVG Export Plug-In . SVG Version: 6.00 Build 0)  -->
<svg version="1.1" xmlns="http://www.w3.org/2000/svg" xmlns:xlink="http://www.w3.org/1999/xlink" x="0px" y="0px" width="100px"
	 height="100px" viewBox="0 0 100 100" style="enable-background:new 0 0 100 100;" xml:space="preserve">
<g id="Calque_1">
	<g>
		<path d="M28.6,71.4c2,2,5.1,2,7.1,0l35.8-35.8c2-2,2-5.1,0-7.1c-2-2-5.1-2-7.1,0L28.6,64.4C26.6,66.3,26.6,69.5,28.6,71.4z"/>
	</g>
</g>
<g id="Calque_2">
	<path d="M45.7,64.2c0.2,2.9-0.8,5.9-3,8.1L31.1,84c-4.1,4.1-10.7,4.1-14.8,0l-0.2-0.2C12,79.7,12,73,16.1,68.9l11.6-11.6
		c2.2-2.2,5.2-3.2,8.1-3l8-8c-7.6-3.6-17-2.3-23.3,4L9,61.9c-8,8-8,21,0,28.9L9.2,91c8,8,21,8,28.9,0l11.6-11.6
		c6.3-6.3,7.6-15.7,4-23.3L45.7,64.2z"/>
</g>
<g id="Calque_3">
	<path d="M91.1,9.2L90.8,9c-8-8-21-8-28.9,0L50.3,20.6c-6.3,6.3-7.6,15.7-4,23.3l8-8c-0.2-2.9,0.8-5.9,3-8.1L69,16
		c4.1-4.1,10.7-4.1,14.8,0l0.2,0.2c4.1,4.1,4.1,10.7,0,14.8L72.4,42.6c-2.2,2.2-5.2,3.2-8.1,3l-8,8c7.6,3.6,17,2.3,23.3-4L91,38.1
		C99,30.1,99,17.2,91.1,9.2z"/>
</g>
</svg>
